<?xml version="1.0" encoding="UTF-8"?>
<!DOCTYPE svg PUBLIC "-//W3C//DTD SVG 1.1//EN" "http://www.w3.org/Graphics/SVG/1.1/DTD/svg11.dtd">
<!-- Creator: CorelDRAW 2021 (64-Bit) -->
<svg xmlns="http://www.w3.org/2000/svg" xml:space="preserve" width="210mm" height="50.8mm" version="1.1" style="shape-rendering:geometricPrecision; text-rendering:geometricPrecision; image-rendering:optimizeQuality; fill-rule:evenodd; clip-rule:evenodd"
viewBox="0 0 21000 5080"
 xmlns:xlink="http://www.w3.org/1999/xlink"
 xmlns:xodm="http://www.corel.com/coreldraw/odm/2003">
 <defs>
  <style type="text/css">
   <![CDATA[
    .fil2 {fill:#333333}
    .fil4 {fill:#4D4D4D;fill-rule:nonzero}
    .fil1 {fill:white;fill-rule:nonzero}
    .fil0 {fill:url(#id0)}
    .fil3 {fill:url(#id1)}
   ]]>
  </style>
  <linearGradient id="id0" gradientUnits="userSpaceOnUse" x1="6952.3" y1="881.08" x2="2929.3" y2="4863.18">
   <stop offset="0" style="stop-opacity:1; stop-color:#FF6600"/>
   <stop offset="1" style="stop-opacity:1; stop-color:red"/>
  </linearGradient>
  <linearGradient id="id1" gradientUnits="userSpaceOnUse" xlink:href="#id0" x1="14337.24" y1="2378.46" x2="13759.16" y2="1470.37">
  </linearGradient>
 </defs>
 <g id="Layer_x0020_1">
  <metadata id="CorelCorpID_0Corel-Layer"/>
  <g id="_1753589949824">
   <g>
    <path class="fil0" d="M2652.84 2519.52l1845.2 1989.83c446.56,481.56 1242.17,481.56 1688.65,-0.01l1840.27 -1984.9c446.48,-481.57 644.45,-1562.51 0,-1688.64 -3883.23,-760.02 -1441.29,-905.1 -5374.12,-4.93 -640.14,146.51 -446.55,1207.1 0,1688.65z"/>
    <path class="fil1" d="M4272.07 1822.48l2747.13 -254.78 0 -0.04 0.75 -0.05 0 -0.05 5.83 -0.65c11.47,-1.27 22.41,-3.54 32.74,-6.72l0.14 0c10.49,-3.2 20.77,-7.51 30.61,-12.7 9.82,-5.2 19.06,-11.29 27.55,-18.11 8.58,-6.9 16.49,-14.61 23.54,-22.93 6.9,-8.13 13.04,-16.97 18.27,-26.33 5.2,-9.27 9.44,-18.86 12.56,-28.53 2.97,-9.27 5.14,-18.99 6.3,-29.01 1.39,-11.69 1.33,-22.76 0.11,-34.17l-0.03 0c-1.15,-10.45 -3.38,-20.61 -6.58,-30.34l-0.03 0.03c-3.35,-10.16 -7.65,-19.74 -12.76,-28.59 -5.46,-9.44 -11.81,-18.24 -18.88,-26.24 -7.19,-8.12 -15.36,-15.68 -24.32,-22.53 -9.01,-6.87 -18.71,-12.91 -28.96,-17.95 -10.25,-5.09 -21.02,-9.22 -32.13,-12.31 -10.75,-2.97 -22.15,-4.99 -34.13,-5.97 -11.67,-0.98 -23.4,-0.9 -35.04,0.29l-2817.72 292.93c-69.49,7.28 -141.93,9.67 -209.34,26.54 -45.13,11.28 -88.44,29.56 -131.37,62.07 -15.69,11.84 -29.51,24.39 -41.59,37.4l0.07 0.08c-12.56,13.6 -23.54,27.95 -32.87,42.88l-0.15 0c-9.4,15.02 -17.29,30.92 -23.67,47.44 -6.24,16.2 -10.91,33.2 -14,50.67 -1.71,9.67 -2.89,19.18 -3.55,28.48l0 0.11c-0.7,9.96 -0.9,19.55 -0.58,28.68 0.29,9.23 1.15,18.79 2.49,28.52 1.32,9.49 3.14,19 5.44,28.41l0 0.12c2.41,9.79 5.29,19.4 8.67,28.79 3.41,9.44 7.33,18.82 11.78,28.06 4.19,8.72 9.1,17.73 14.76,26.92 5.25,8.6 11.23,17.29 17.82,25.98 14.78,19.58 32.04,37.97 51.74,54.72 19.22,16.4 41.2,31.64 65.89,45.33 23.7,13.17 50.06,24.86 78.97,34.76 27.86,9.51 58.15,17.33 90.8,23.07 113.23,19.99 300.85,1.79 495.29,-28.96 194.96,-30.83 387.7,-72.73 580.54,-114.28 66.59,-14.3 125.78,40.33 85.16,114.23 -30.2,55 -58.79,109.71 -85.61,164 -27.09,54.86 -52.64,109.69 -76.5,164.35 -23.79,54.52 -46.17,109.47 -67.01,164.7 -20.51,54.32 -39.65,109.53 -57.35,165.54 -17.5,55.35 -33.23,110.41 -47.12,165.07 -14.06,55.42 -26.31,110.6 -36.67,165.43 -10.34,54.59 -18.97,109.95 -25.85,165.97 -3.65,29.84 -20.72,155.12 -15.3,207.4 0.9,8.46 2.74,19.17 6.47,30.12 2.6,7.59 6.16,15.21 10.92,21.99 5.14,7.34 12.15,13.96 21.62,18.57 8.99,4.36 20.25,7.19 34.24,7.57l0.15 0c8.99,0.23 19.81,-0.69 32.12,-2.6 12.81,-1.99 27.69,-5.17 44.09,-9.21 15.93,-3.94 33.66,-8.9 52.6,-14.53l0.15 0c12.27,-3.67 24.62,-7.47 37.05,-11.4 2.12,-42.51 6.96,-71.35 13.99,-113.45l0.04 -0.2 3.32 -20.06 4.5 -26.97 0.06 0c11.2,-65.92 23.47,-131.22 36.81,-195.86 15.21,-73.74 31.61,-146.01 49.15,-216.77 17.47,-70.51 36.37,-140.75 56.65,-210.63 19.95,-68.89 41.23,-137.26 63.73,-205.04 23.98,-72.36 48.88,-142.64 74.55,-210.92 25.75,-68.41 52.96,-136.52 81.48,-204.32 26.86,-63.75 54.05,-125.4 81.6,-184.96 19.81,-42.88 40.08,-85.39 60.78,-127.48l-1292.68 119.88c-8.11,5.66 -17.23,11.49 -26.94,17.18 -12.47,7.3 -25.26,14.03 -37.42,19.54 -13.1,5.98 -26.56,11.04 -39.43,14.62 -13.03,3.64 -25.39,5.74 -36.24,5.74 -19.81,0 -38.9,-4.04 -56.45,-11.29 -18.29,-7.56 -34.59,-18.54 -48.1,-32.02l-9.45 -9.47 0 -1.01c-9.27,-11.21 -16.92,-23.88 -22.58,-37.59l0 -0.12c-7.27,-17.52 -11.29,-36.58 -11.29,-56.36 0,-19.81 4.02,-38.87 11.29,-56.39 5.66,-13.72 13.34,-26.39 22.58,-37.59l0 -1.14 9.45 -9.46c13.51,-13.49 29.81,-24.46 48.1,-32.02 17.55,-7.28 36.64,-11.29 56.45,-11.29 25.95,0 46.28,9.5 63.89,23.93l0.06 -0.09c24.54,20.16 50.5,47.97 66.85,73.37zm2759.14 -113.58l-1290.66 119.71c-29.62,58.03 -58.15,116.16 -85.44,174.31 -30.16,64.25 -59.3,129.41 -87.28,195.39 -28.38,66.91 -55.93,135.51 -82.52,205.84 -26.68,70.55 -51.8,141.24 -75.31,212.03 -22.26,67.22 -43.95,137.22 -64.88,210.09 -20.82,72.44 -40.05,144.69 -57.55,216.7 -17.46,71.75 -33.92,146.17 -49.34,223.34 -15.45,77.5 -29.17,154.2 -41,229.99 -0.52,3.38 -1.27,8.37 -2.49,16.92 212.4,-64.53 372.77,-84.77 490.43,-73.92 158.46,14.61 243.21,84.69 274.89,180.52 20.9,63.3 16.83,136.81 -5.49,211.8 -23.38,78.45 -67.07,159.29 -122.92,231.69 -55.61,72.06 -123.75,136.36 -196.35,182.16 -68.28,43.11 -140.9,70.08 -211.5,72.28 -105.19,3.32 -203.24,-45.53 -273.52,-172.38 -53.08,-95.78 -90.03,-237.38 -101.18,-436.72 -5.37,1.58 -10.7,3.14 -15.99,4.67 -17.93,5.11 -35.43,9.73 -52.3,13.65l-0.14 0c-18.71,4.34 -36.73,7.8 -53.85,10.11 -17.47,2.37 -33.95,3.47 -49.21,3.07 -29.07,-0.79 -55.05,-5.87 -78.01,-14.53 -24.89,-9.41 -46.25,-23.01 -64.24,-39.93 -18.69,-17.56 -33.48,-38.55 -44.53,-62 -11.23,-23.76 -18.63,-50.15 -22.4,-78.19 -0.94,-6.84 -1.59,-13.11 -1.99,-18.88l0 0c-0.38,-5.12 -0.59,-11.26 -0.7,-18.19 -0.07,-5.95 0,-11.63 0.15,-17.21 0.17,-6.56 0.4,-11.92 0.65,-16.92 3.21,-59.6 8.38,-118.5 15.46,-176.62 7.1,-58.34 16.24,-116.94 27.31,-175.79 11.06,-58.74 23.97,-116.98 38.55,-174.69 14.78,-58.44 31.29,-116.34 49.43,-173.65 16.98,-53.72 36.01,-108.57 56.97,-164.56 21.01,-56.07 43.05,-110.73 66.03,-164 20.94,-48.52 43.46,-97.74 67.46,-147.61 13.82,-28.76 28.09,-57.49 42.7,-86.16 -139.44,29.77 -312.71,65.14 -481.13,90.76 -198.61,30.19 -390.97,46.77 -515.44,24.8 -40.2,-7.1 -78.22,-17.01 -113.93,-29.37 -37.28,-12.85 -71.33,-28.15 -102.13,-45.39 -32.58,-18.25 -62.09,-38.96 -88.48,-61.56 -27.49,-23.59 -51.42,-49.11 -71.78,-76.03 -9.07,-11.98 -17.61,-24.55 -25.53,-37.51 -7.7,-12.64 -14.92,-25.95 -21.59,-39.82 -6.52,-13.62 -12.33,-27.51 -17.36,-41.51 -5.11,-14.24 -9.44,-28.56 -12.93,-42.83 -3.52,-14.29 -6.29,-28.58 -8.23,-42.75 -1.99,-14.21 -3.23,-28.73 -3.76,-43.47 -0.48,-14.83 -0.25,-29.27 0.73,-43.24 0.98,-14.61 2.73,-28.96 5.2,-42.94 4.53,-25.7 11.69,-51.4 21.45,-76.77 9.62,-24.99 21.54,-49 35.65,-71.58 13.98,-22.41 30.3,-43.87 48.87,-64.03 18.07,-19.63 38.31,-38.05 60.66,-54.97 29.59,-22.37 59.22,-39.99 89.08,-53.97 29.99,-14.03 59.57,-24.19 89.19,-31.75 28.35,-7.23 57.69,-12.25 88.07,-16.15 324.76,-42.03 658.82,-67.92 984.53,-101.78l1978.72 -205.7c20.99,-2.17 41.49,-2.34 61.33,-0.7 20.39,1.68 40.54,5.38 60.27,10.86 19.94,5.55 39.11,12.91 57.22,21.89 18.48,9.15 35.89,19.98 52,32.25 16.11,12.31 31.13,26.27 44.68,41.67 13.36,15.13 25.28,31.67 35.45,49.37 10.11,17.56 18.46,36.04 24.72,55.16 13.05,39.65 17.31,82.15 12.61,123.6 -2.19,19.34 -6.35,38.41 -12.27,56.92 -6.06,18.91 -14.03,37.13 -23.64,54.36 -9.73,17.5 -21.17,33.99 -33.96,49.12 -12.82,15.13 -27.2,29.14 -42.91,41.78 -15.53,12.44 -32.35,23.57 -50.24,33.04 -17.35,9.18 -35.86,16.91 -55.35,22.86 -18.97,5.84 -38.67,10 -58.88,12.21l-1.15 0.13 -2.34 0.25 -1.12 0 -0.82 0.09 -1.23 0.14 -2.54 0.24 -0.61 0 -0.32 0zm-1842.59 1955.13c5,175.04 31.48,297.26 71.21,378.12 44.55,90.65 105.79,126.4 170.64,125.65 46.61,-0.51 96.56,-18.65 144.96,-48.25 54.48,-33.38 106.43,-81.16 149.44,-135.16 42.68,-53.56 76.12,-112.52 94.08,-168.74 15.74,-49.26 19.55,-96.03 6.93,-134.24l-0.09 -0.26c-16.86,-50.67 -66.78,-88.24 -162.59,-98.17 -104.04,-10.79 -257.65,10.74 -474.58,81.05z"/>
   </g>
   <g>
    <path class="fil2" d="M17765.11 2612.86l0 -1165.37c0,-93.73 -25.17,-105.92 57.85,-105.92l626.25 0c160.9,0 253.44,74.93 277.38,225.1l3.79 52.57 0 275.79c0,25.8 -1.28,44.69 -3.79,56.98 -11.01,60.44 -36.23,109.86 -75.27,148.59 -36.82,36.21 -84.67,58.87 -143.85,68.31l-50.36 3.47 -45.36 -1.9 266.46 437.08 65.38 107.25c-204.08,0 -309.86,59.66 -407.86,-103.65l-245.07 -408.26c-15.46,-23.9 -23,-59.48 -23,-106.09 0,-27.69 4.4,-51.92 13.22,-73.03 9.13,-20.77 22.05,-39.69 39.37,-56.02 31.48,-29.61 72.4,-44.42 122.79,-44.42l118.97 0c27.73,0 47.56,-6.26 59.51,-18.55 11.94,-12.3 17.95,-32.76 17.95,-61.39l0 -125.34c0,-47.22 -23.62,-74.26 -71.16,-81.82l-19.52 0 -194.15 0c-125.65,0 -96.76,-9 -96.76,126.24l0 848.73c0,193.78 -292.77,150.63 -292.77,1.65z"/>
    <path class="fil2" d="M17038.19 2714.81c-71.46,0 -131.29,-11.02 -179.74,-33.07 -48.51,-22.34 -85.03,-55.08 -109.26,-98.2 -24.24,-43.45 -36.53,-95.39 -36.53,-155.54l0 -789.58c0,-20.12 1.89,-40.6 5.68,-60.75 25.17,-157.4 117.45,-236.1 277.36,-236.1l410.04 0c310.7,0 315.77,294.67 3.34,294.67l-286.49 0 -43.48 0 -6.28 0c-10.39,1.89 -16.67,3.77 -18.58,5.68 -15.41,5.34 -27.71,15.42 -36.84,30.2 -7.87,14.81 -11.97,32.42 -11.97,52.56l0 153.32 403.64 0c303.85,0 315.3,294.7 -3.37,294.7l-400.27 0 0 153.32c0,31.16 5.67,53.48 16.69,66.72 11.03,13.21 30.87,21.74 58.88,25.5l43.44 0 281.94 0c308.78,0 317.57,296.57 -0.56,296.57l-367.64 0z"/>
    <path class="fil2" d="M15735.17 1427.18c22.34,-29.28 51.62,-51 87.18,-64.84 35.58,-13.84 79.35,-20.77 130.97,-20.77l476.46 0c178.26,0 212.06,294.67 3.33,294.67l-377.15 0 -22.99 0c-102.1,13.26 -71.25,198.92 -39.67,224.78 10.41,8.83 27.39,14.47 50.7,16.98l19.52 0 210.93 0c359.47,0 331.3,602.05 211.56,741.73 -41.55,48.8 -102.33,79.04 -181.66,91.29l-49.13 3.79 -420.64 0c-275.39,0 -233.32,-296.57 -13.38,-296.57 54.99,0 374.88,33.16 422.38,-32.73 23.33,-33.54 35.94,-199.78 -50.68,-212.81l-33.99 0 -209.34 0c-331.76,0 -354.25,-560.33 -214.4,-745.52z"/>
    <path class="fil2" d="M14836.81 2117.58l-359.76 -662.59 -61.62 -113.42c212.48,0 303.23,-62.83 391.12,112.75l199.81 399.16 218.11 -398.07c96.56,-176.13 179.79,-113.84 396.1,-113.84l-61.23 112.31 -364.61 668.64c-38.65,70.91 -31.28,65.42 -31.28,146.39l0 347.8c0,181.72 -292.78,151.56 -292.78,-8.35l0 -334.45c0,-86.85 7.48,-80.17 -33.86,-156.33z"/>
    <path class="fil3" d="M13971.23 2714.81c-31.79,0 -61.38,-4.09 -88.77,-11.96 -27.4,-8.19 -53.2,-19.23 -77.78,-33.38 -42.5,-23.94 -73.66,-59.81 -93.81,-107.35 -20.48,-47.86 -30.53,-108.61 -30.53,-182.62l0 -921.2c0,-213.26 292.77,-170.91 292.77,-3.38l0 840.55 0 56.66 0 3.8c0,41.54 24.57,62.31 74.01,62.31l52.55 0 280.62 0c292.76,0 300.84,296.57 0,296.57l-359.95 0 -21.38 0c-4.74,0 -9.78,0 -14.81,0 -6.01,0 -10.41,0 -12.92,0z"/>
    <path class="fil2" d="M12505.4 2614.81l0 -1159.34c0,-207.58 292.78,-170.36 292.78,0.82l0 421.71 411.8 0 0 -421.67c0,-171.5 292.77,-207.77 292.77,-1.67l0 1161.78c0,186.12 -292.77,141.95 -292.77,1.68l0 -445.42 -411.8 0 0 441.27c0,189.4 -292.78,146.89 -292.78,0.84z"/>
    <path class="fil2" d="M11641.24 2693.74c-58.57,-23.64 -102.32,-58.57 -130.97,-105.8 -28.96,-46.93 -43.45,-106.74 -43.45,-179.47l0 -755.24c0,-62.64 5.36,-113.01 16.04,-151.1 10.7,-38.1 28.02,-68.94 51.66,-92.88 23.59,-23.62 56.34,-40.94 98.2,-51.62 41.88,-10.7 92.88,-16.06 153.03,-16.06l367.07 0c325.53,0 328.08,294.67 1.67,294.67l-285.96 0 -25.8 0 -15.75 0c-36.84,3.77 -59.5,24.24 -67.39,61.7l0 34.32 0 567c0,29.9 2.22,53.5 6.95,70.19 4.69,16.38 13.22,28.36 25.47,35.89 10.41,5.66 28.37,9.75 54.49,12.9l24.86 0 281.38 0c325.27,0 329.5,296.57 0,296.57l-410.13 0c-17.95,0 -34.64,-1.57 -49.74,-4.74 -15.44,-2.82 -32.76,-8.48 -51.63,-16.33z"/>
    <path class="fil2" d="M10739.9 2714.81c-71.46,0 -131.29,-11.02 -179.77,-33.07 -48.49,-22.34 -85.01,-55.08 -109.24,-98.2 -24.25,-43.45 -36.52,-95.39 -36.52,-155.54l0 -789.58c0,-20.12 1.88,-40.6 5.67,-60.75 25.18,-157.4 117.43,-236.1 277.36,-236.1l438.63 0c260.84,0 277.32,294.67 4.2,294.67l-315.96 0 -43.46 0 -6.28 0c-10.41,1.89 -16.67,3.77 -18.59,5.68 -15.4,5.34 -27.69,15.42 -36.82,30.2 -7.88,14.81 -11.98,32.42 -11.98,52.56l0 153.32 430.47 0c279.22,0 253.9,294.7 3.37,294.7l-433.84 0 0 153.32c0,31.16 5.68,53.48 16.69,66.72 11.04,13.21 30.87,21.74 58.89,25.5l43.44 0 312.22 0c277.63,0 254.95,296.57 0.72,296.57l-399.2 0z"/>
    <path class="fil2" d="M9719.57 1636.24l-256.48 0c-131.94,0 -85.65,-294.67 -1.68,-294.67l786.76 0c127.08,0 157.57,294.67 10.03,294.67l-245.86 0 0 1010.03c0,132.01 -292.77,115.62 -292.77,-20.05l0 -989.98z"/>
    <path class="fil4" d="M9623.23 3181.1l58.19 0 118.4 414.06 166.86 -414.06 10.01 0 162.71 414.06 119.08 -414.06 58.33 0 -165.39 575.04 -9.35 0 -170.85 -434.89 -175.27 434.89 -8.27 0 -164.45 -575.04zm1151.16 434.08l46.18 24.3c-15.21,29.5 -32.7,53.39 -52.59,71.55 -19.89,18.02 -42.18,31.9 -67.01,41.37 -24.96,9.48 -52.99,14.16 -84.36,14.16 -69.68,0 -124.01,-22.69 -163.25,-68.08 -39.25,-45.38 -58.87,-96.64 -58.87,-153.77 0,-53.8 16.69,-101.85 49.92,-143.9 42.05,-53.52 98.52,-80.36 169.13,-80.36 72.75,0 130.95,27.5 174.33,82.36 30.83,38.72 46.58,87.04 47.12,145.1l-384.43 0c1.06,49.26 16.95,89.56 47.52,120.94 30.7,31.5 68.6,47.25 113.59,47.25 21.76,0 42.98,-3.74 63.54,-11.21 20.55,-7.48 38.04,-17.36 52.46,-29.77 14.41,-12.42 30.03,-32.3 46.72,-59.94zm0.53 -114.52c-7.34,-29.23 -18.02,-52.46 -32.03,-69.95 -14.15,-17.49 -32.71,-31.5 -55.8,-42.18 -23.09,-10.68 -47.39,-16.02 -72.75,-16.02 -42.05,0 -78.09,13.35 -108.26,40.18 -22.15,19.62 -38.71,48.85 -50.05,87.97l318.89 0zm392.98 -319.56l113.33 0c45.65,0 80.76,5.34 105.18,16.15 24.57,10.81 43.92,27.5 58.07,49.92 14.28,22.29 21.36,47.25 21.36,74.48 0,25.64 -6.27,48.86 -18.69,69.82 -12.42,20.95 -30.7,37.91 -54.73,50.98 29.9,10.15 52.86,22.03 68.88,35.78 16.15,13.62 28.56,30.17 37.5,49.66 8.95,19.35 13.49,40.44 13.49,63.13 0,46.19 -16.82,85.3 -50.59,117.2 -33.78,31.9 -79.02,47.92 -135.89,47.92l-157.91 0 0 -575.04zm56.06 56.06l0 184.21 32.98 0c40.04,0 69.54,-3.74 88.36,-11.08 18.82,-7.48 33.77,-19.22 44.72,-35.24 11.08,-16.02 16.55,-33.91 16.55,-53.4 0,-26.29 -9.21,-46.98 -27.63,-62.06 -18.55,-14.95 -47.92,-22.43 -88.23,-22.43l-66.75 0zm0 241.87l0 221.05 71.42 0c42.04,0 72.88,-4.14 92.5,-12.28 19.62,-8.28 35.37,-21.23 47.26,-38.71 11.88,-17.49 17.88,-36.44 17.88,-56.73 0,-25.63 -8.41,-48.06 -25.1,-67.14 -16.68,-18.96 -39.64,-32.04 -68.87,-39.11 -19.62,-4.67 -53.79,-7.08 -102.52,-7.08l-32.57 0zm752.45 136.15l46.19 24.3c-15.22,29.5 -32.71,53.39 -52.59,71.55 -19.89,18.02 -42.19,31.9 -67.02,41.37 -24.96,9.48 -52.99,14.16 -84.36,14.16 -69.68,0 -124,-22.69 -163.25,-68.08 -39.24,-45.38 -58.86,-96.64 -58.86,-153.77 0,-53.8 16.68,-101.85 49.92,-143.9 42.05,-53.52 98.51,-80.36 169.12,-80.36 72.75,0 130.95,27.5 174.33,82.36 30.84,38.72 46.59,87.04 47.12,145.1l-384.43 0c1.07,49.26 16.95,89.56 47.52,120.94 30.7,31.5 68.61,47.25 113.59,47.25 21.76,0 42.99,-3.74 63.54,-11.21 20.56,-7.48 38.04,-17.36 52.46,-29.77 14.42,-12.42 30.04,-32.3 46.72,-59.94zm0.53 -114.52c-7.34,-29.23 -18.02,-52.46 -32.03,-69.95 -14.15,-17.49 -32.71,-31.5 -55.8,-42.18 -23.09,-10.68 -47.38,-16.02 -72.75,-16.02 -42.04,0 -78.08,13.35 -108.25,40.18 -22.16,19.62 -38.71,48.85 -50.06,87.97l318.89 0zm152.85 -333.98l54.46 0 0 589.46 -54.46 0 0 -589.46zm187.41 -10.41c12.41,0 22.96,4.41 31.77,13.35 8.81,8.8 13.21,19.62 13.21,32.03 0,12.28 -4.4,22.96 -13.21,31.77 -8.81,8.94 -19.36,13.35 -31.77,13.35 -12.28,0 -22.69,-4.41 -31.5,-13.35 -8.81,-8.81 -13.21,-19.49 -13.21,-31.77 0,-12.41 4.4,-23.23 13.21,-32.03 8.81,-8.94 19.22,-13.35 31.5,-13.35zm-27.09 174.59l54.45 0 0 425.28 -54.45 0 0 -425.28zm527.39 284.32l46.19 24.3c-15.22,29.5 -32.71,53.39 -52.6,71.55 -19.88,18.02 -42.18,31.9 -67.01,41.37 -24.96,9.48 -52.99,14.16 -84.36,14.16 -69.68,0 -124.01,-22.69 -163.25,-68.08 -39.25,-45.38 -58.86,-96.64 -58.86,-153.77 0,-53.8 16.68,-101.85 49.92,-143.9 42.05,-53.52 98.51,-80.36 169.12,-80.36 72.75,0 130.95,27.5 174.33,82.36 30.84,38.72 46.59,87.04 47.12,145.1l-384.43 0c1.06,49.26 16.95,89.56 47.52,120.94 30.7,31.5 68.61,47.25 113.59,47.25 21.76,0 42.99,-3.74 63.54,-11.21 20.56,-7.48 38.04,-17.36 52.46,-29.77 14.42,-12.42 30.03,-32.3 46.72,-59.94zm0.53 -114.52c-7.34,-29.23 -18.02,-52.46 -32.03,-69.95 -14.15,-17.49 -32.71,-31.5 -55.8,-42.18 -23.09,-10.68 -47.38,-16.02 -72.75,-16.02 -42.04,0 -78.08,13.35 -108.25,40.18 -22.16,19.62 -38.72,48.85 -50.06,87.97l318.89 0zm120.81 -169.8l57.26 0 143.23 310.49 142.16 -310.49 58.61 0 -194.63 425.28 -10.41 0 -196.22 -425.28zm842.95 284.32l46.19 24.3c-15.22,29.5 -32.71,53.39 -52.6,71.55 -19.89,18.02 -42.18,31.9 -67.01,41.37 -24.96,9.48 -52.99,14.16 -84.36,14.16 -69.68,0 -124.01,-22.69 -163.25,-68.08 -39.25,-45.38 -58.87,-96.64 -58.87,-153.77 0,-53.8 16.69,-101.85 49.93,-143.9 42.05,-53.52 98.51,-80.36 169.12,-80.36 72.75,0 130.95,27.5 174.33,82.36 30.84,38.72 46.59,87.04 47.12,145.1l-384.43 0c1.06,49.26 16.95,89.56 47.52,120.94 30.7,31.5 68.61,47.25 113.59,47.25 21.76,0 42.98,-3.74 63.54,-11.21 20.55,-7.48 38.04,-17.36 52.46,-29.77 14.42,-12.42 30.03,-32.3 46.72,-59.94zm0.53 -114.52c-7.34,-29.23 -18.02,-52.46 -32.03,-69.95 -14.15,-17.49 -32.71,-31.5 -55.8,-42.18 -23.09,-10.68 -47.39,-16.02 -72.75,-16.02 -42.04,0 -78.09,13.35 -108.25,40.18 -22.16,19.62 -38.72,48.85 -50.06,87.97l318.89 0zm383.37 -319.56l57.67 0 0 575.04 -57.67 0 0 -575.04zm180.21 149.76l54.46 0 0 76.22c22.02,-29.09 46.32,-50.85 72.88,-65.14 26.7,-14.28 55.66,-21.49 87.03,-21.49 31.9,0 60.2,8.01 84.9,24.16 24.69,16.15 42.98,37.91 54.72,65.27 11.75,27.24 17.62,69.82 17.62,127.62l0 218.64 -54.46 0 0 -202.63c0,-48.85 -2.13,-81.55 -6.27,-97.97 -6.67,-28.03 -18.95,-49.12 -36.98,-63.41 -18.02,-14.14 -41.51,-21.22 -70.47,-21.22 -33.24,0 -63.01,10.94 -89.17,32.84 -26.3,21.76 -43.65,48.85 -51.93,81.15 -5.21,21.09 -7.87,59.54 -7.87,115.47l0 155.77 -54.46 0 0 -425.28zm674.09 -149.76l65.81 0 148.7 240.13 146.16 -240.13 65.41 0 -182.61 300.07 0 274.97 -57.66 0 0 -274.97 -185.81 -300.07zm711.73 139.35c65.54,0 120.01,23.63 163.12,71.02 39.25,43.11 58.87,94.23 58.87,153.24 0,59.26 -20.69,111.05 -62.21,155.37 -41.37,44.32 -94.77,66.48 -159.78,66.48 -65.41,0 -118.93,-22.16 -160.31,-66.48 -41.51,-44.32 -62.2,-96.11 -62.2,-155.37 0,-58.74 19.62,-109.73 58.86,-152.84 43.12,-47.66 97.71,-71.42 163.65,-71.42zm-0.26 53.66c-45.52,0 -84.5,16.69 -117.2,50.19 -32.71,33.51 -48.99,74.09 -48.99,121.61 0,30.57 7.48,59.13 22.29,85.69 14.95,26.44 35.11,46.86 60.47,61.27 25.23,14.42 53.13,21.63 83.43,21.63 30.3,0 58.19,-7.21 83.42,-21.63 25.37,-14.41 45.53,-34.83 60.48,-61.27 14.81,-26.56 22.29,-55.12 22.29,-85.69 0,-47.52 -16.42,-88.1 -49.26,-121.61 -32.71,-33.5 -71.68,-50.19 -116.93,-50.19zm315.82 -43.25l54.46 0 0 198.49c0,48.46 2.67,81.7 7.88,99.98 7.74,26.03 22.82,46.59 44.85,61.67 22.03,15.09 48.46,22.7 79.02,22.7 30.57,0 56.46,-7.34 77.82,-22.03 21.23,-14.82 36.05,-34.04 44.05,-58.06 5.47,-16.42 8.28,-51.13 8.28,-104.26l0 -198.49 56.06 0 0 208.51c0,58.6 -6.81,102.65 -20.56,132.28 -13.61,29.77 -34.3,52.99 -61.8,69.68 -27.49,16.82 -61.93,25.23 -103.45,25.23 -41.51,0 -76.08,-8.41 -103.85,-25.23 -27.76,-16.69 -48.58,-40.18 -62.2,-70.22 -13.75,-30.03 -20.56,-75.28 -20.56,-135.61l0 -204.64zm473.2 0l56.07 0 0 62.21c16.68,-24.56 34.3,-42.72 52.85,-54.73 18.56,-11.88 37.92,-17.89 57.94,-17.89 15.21,0 31.37,4.81 48.58,14.42l-28.56 45.92c-11.48,-4.94 -21.09,-7.48 -28.97,-7.48 -18.28,0 -35.9,7.48 -52.85,22.43 -16.96,14.95 -29.9,38.3 -38.85,69.81 -6.8,24.16 -10.14,73.15 -10.14,146.83l0 143.76 -56.07 0 0 -425.28zm484.28 -149.76l57.67 0 0 575.04 -57.67 0 0 -575.04zm604.69 -14.42l0 589.46 -54.46 0 0 -73.14c-22.96,27.89 -48.59,48.85 -77.16,62.73 -28.43,13.89 -59.67,20.83 -93.44,20.83 -60.06,0 -111.46,-21.76 -154.03,-65.28 -42.59,-43.65 -63.81,-96.5 -63.81,-158.97 0,-61.01 21.49,-113.33 64.47,-156.71 42.85,-43.39 94.5,-65.15 154.98,-65.15 34.83,0 66.34,7.48 94.63,22.29 28.17,14.82 53,37.12 74.36,66.88l0 -242.94 54.46 0zm-219.18 206.63c-30.44,0 -58.6,7.48 -84.23,22.43 -25.76,14.82 -46.19,35.77 -61.41,62.73 -15.21,26.97 -22.82,55.54 -22.82,85.7 0,29.77 7.61,58.33 22.96,85.57 15.35,27.23 35.91,48.45 61.8,63.53 25.9,15.22 53.66,22.83 83.3,22.83 29.76,0 58.19,-7.48 84.89,-22.56 26.83,-15.08 47.39,-35.37 61.8,-61.14 14.42,-25.63 21.63,-54.59 21.63,-86.76 0,-48.99 -16.15,-89.97 -48.59,-122.94 -32.3,-32.97 -72.08,-49.39 -119.33,-49.39zm702.39 241.87l46.19 24.3c-15.22,29.5 -32.71,53.39 -52.6,71.55 -19.88,18.02 -42.18,31.9 -67.01,41.37 -24.96,9.48 -52.99,14.16 -84.36,14.16 -69.68,0 -124.01,-22.69 -163.25,-68.08 -39.25,-45.38 -58.86,-96.64 -58.86,-153.77 0,-53.8 16.68,-101.85 49.92,-143.9 42.05,-53.52 98.51,-80.36 169.12,-80.36 72.75,0 130.95,27.5 174.33,82.36 30.84,38.72 46.59,87.04 47.12,145.1l-384.43 0c1.06,49.26 16.95,89.56 47.52,120.94 30.7,31.5 68.61,47.25 113.59,47.25 21.76,0 42.99,-3.74 63.54,-11.21 20.56,-7.48 38.04,-17.36 52.46,-29.77 14.42,-12.42 30.03,-32.3 46.72,-59.94zm0.53 -114.52c-7.34,-29.23 -18.02,-52.46 -32.03,-69.95 -14.15,-17.49 -32.71,-31.5 -55.8,-42.18 -23.09,-10.68 -47.38,-16.02 -72.75,-16.02 -42.04,0 -78.08,13.35 -108.25,40.18 -22.16,19.62 -38.72,48.85 -50.06,87.97l318.89 0zm584.54 -169.8l0 425.28 -54.47 0 0 -73.14c-22.96,27.89 -48.59,48.85 -77.15,62.73 -28.43,13.89 -59.67,20.83 -93.44,20.83 -60.07,0 -111.46,-21.76 -154.04,-65.28 -42.58,-43.65 -63.81,-96.5 -63.81,-158.97 0,-61.01 21.49,-113.33 64.48,-156.71 42.84,-43.39 94.5,-65.15 154.97,-65.15 34.84,0 66.34,7.34 94.64,22.03 28.16,14.68 53,36.84 74.35,66.6l0 -78.22 54.47 0zm-219.19 42.45c-30.43,0 -58.6,7.48 -84.22,22.43 -25.77,14.82 -46.19,35.77 -61.41,62.73 -15.21,26.97 -22.82,55.54 -22.82,85.7 0,29.77 7.61,58.33 22.95,85.57 15.36,27.23 35.91,48.45 61.81,63.53 25.89,15.22 53.66,22.83 83.29,22.83 29.77,0 58.2,-7.48 84.9,-22.56 26.83,-15.08 47.38,-35.37 61.8,-61.14 14.42,-25.63 21.62,-54.59 21.62,-86.76 0,-48.99 -16.15,-89.97 -48.59,-122.94 -32.3,-32.97 -72.07,-49.39 -119.33,-49.39z"/>
   </g>
  </g>
 </g>
</svg>
