<?xml version="1.0" encoding="UTF-8"?>
<!DOCTYPE svg PUBLIC "-//W3C//DTD SVG 1.1//EN" "http://www.w3.org/Graphics/SVG/1.1/DTD/svg11.dtd">
<!-- Creator: CorelDRAW 2021 (64-Bit) -->
<svg xmlns="http://www.w3.org/2000/svg" xml:space="preserve" width="210mm" height="50.8mm" version="1.1" style="shape-rendering:geometricPrecision; text-rendering:geometricPrecision; image-rendering:optimizeQuality; fill-rule:evenodd; clip-rule:evenodd"
viewBox="0 0 21000 5080"
 xmlns:xlink="http://www.w3.org/1999/xlink"
 xmlns:xodm="http://www.corel.com/coreldraw/odm/2003">
 <defs>
  <style type="text/css">
   <![CDATA[
    .fil2 {fill:#FEFEFE}
    .fil4 {fill:#FEFEFE;fill-rule:nonzero}
    .fil1 {fill:white;fill-rule:nonzero}
    .fil0 {fill:url(#id0)}
    .fil3 {fill:url(#id1)}
   ]]>
  </style>
  <linearGradient id="id0" gradientUnits="userSpaceOnUse" x1="6930.64" y1="884.01" x2="3342.16" y2="4859.07">
   <stop offset="0" style="stop-opacity:1; stop-color:#FF6600"/>
   <stop offset="1" style="stop-opacity:1; stop-color:red"/>
  </linearGradient>
  <linearGradient id="id1" gradientUnits="userSpaceOnUse" xlink:href="#id0" x1="14372.63" y1="2357.69" x2="13720.22" y2="1332.84">
  </linearGradient>
 </defs>
 <g id="Layer_x0020_1">
  <metadata id="CorelCorpID_0Corel-Layer"/>
  <g id="_2418007191776">
   <path class="fil0" d="M3095.56 2519.55l1645.9 1986.33c398.33,480.71 1108.01,480.71 1506.26,-0.01l1641.5 -1981.4c398.26,-480.72 574.85,-1559.76 0,-1685.67 -3463.8,-758.68 -1285.61,-903.5 -4793.66,-4.92 -571,146.25 -398.31,1204.97 0,1685.67z"/>
   <path class="fil1" d="M4539.9 1823.75l2450.41 -254.33 0 -0.04 0.67 -0.06 0 -0.05 5.2 -0.64c10.23,-1.27 19.99,-3.54 29.2,-6.71l0.13 0c9.36,-3.2 18.52,-7.5 27.3,-12.68 8.76,-5.19 17.01,-11.27 24.58,-18.08 7.65,-6.89 14.71,-14.58 20.99,-22.88 6.16,-8.12 11.64,-16.95 16.31,-26.29 4.63,-9.25 8.42,-18.82 11.2,-28.48 2.65,-9.25 4.58,-18.96 5.62,-28.96 1.24,-11.67 1.18,-22.72 0.09,-34.11l-0.02 0c-1.03,-10.43 -3.02,-20.57 -5.87,-30.29l-0.03 0.03c-2.99,-10.14 -6.82,-19.71 -11.38,-28.53 -4.87,-9.43 -10.54,-18.22 -16.85,-26.2 -6.41,-8.1 -13.7,-15.65 -21.68,-22.49 -8.04,-6.85 -16.69,-12.88 -25.83,-17.92 -9.15,-5.07 -18.76,-9.2 -28.67,-12.28 -9.58,-2.97 -19.75,-4.98 -30.44,-5.97 -10.41,-0.98 -20.87,-0.89 -31.25,0.29l-2513.38 292.41c-61.99,7.28 -126.6,9.66 -186.73,26.5 -40.26,11.26 -78.89,29.51 -117.19,61.97 -13.99,11.81 -26.32,24.34 -37.09,37.32l0.06 0.08c-11.21,13.58 -21,27.91 -29.32,42.81l-0.13 0c-8.39,14.99 -15.43,30.86 -21.12,47.36 -5.56,16.17 -9.73,33.14 -12.48,50.58 -1.53,9.65 -2.58,19.14 -3.18,28.43l0 0.1c-0.61,9.95 -0.79,19.52 -0.51,28.63 0.26,9.22 1.03,18.76 2.22,28.47 1.18,9.48 2.8,18.97 4.86,28.36l0 0.12c2.15,9.78 4.72,19.37 7.73,28.74 3.04,9.43 6.54,18.79 10.51,28.02 3.73,8.7 8.11,17.69 13.16,26.86 4.69,8.59 10.02,17.27 15.89,25.94 13.19,19.54 28.58,37.9 46.16,54.62 17.14,16.37 36.75,31.59 58.77,45.26 21.14,13.14 44.66,24.81 70.44,34.69 24.86,9.49 51.87,17.31 81,23.04 100.99,19.94 268.35,1.78 441.79,-28.91 173.9,-30.78 345.82,-72.61 517.84,-114.09 59.39,-14.27 112.19,40.27 75.95,114.03 -26.94,54.91 -52.44,109.52 -76.36,163.71 -24.16,54.77 -46.95,109.5 -68.23,164.07 -21.23,54.42 -41.18,109.27 -59.78,164.4 -18.29,54.23 -35.36,109.34 -51.15,165.25 -15.61,55.25 -29.64,110.22 -42.03,164.78 -12.55,55.32 -23.47,110.4 -32.71,165.14 -9.23,54.5 -16.92,109.75 -23.06,165.67 -3.26,29.8 -18.48,154.85 -13.65,207.04 0.8,8.45 2.45,19.14 5.78,30.07 2.31,7.57 5.49,15.18 9.74,21.95 4.58,7.33 10.83,13.93 19.28,18.54 8.02,4.35 18.06,7.18 30.55,7.55l0.13 0c8.01,0.23 17.67,-0.69 28.64,-2.59 11.44,-1.99 24.7,-5.16 39.33,-9.2 14.21,-3.92 30.03,-8.88 46.92,-14.5l0.13 0c10.95,-3.66 21.97,-7.46 33.05,-11.38 1.9,-42.43 6.21,-71.22 12.49,-113.25l0.03 -0.2 2.96 -20.03 4.02 -26.92 0.05 0c9.99,-65.8 20.93,-130.98 32.83,-195.52 13.57,-73.6 28.2,-145.75 43.84,-216.38 15.59,-70.38 32.45,-140.5 50.54,-210.25 17.79,-68.78 36.77,-137.03 56.84,-204.69 21.39,-72.23 43.6,-142.38 66.5,-210.55 22.97,-68.28 47.24,-136.27 72.68,-203.95 23.96,-63.64 48.21,-125.18 72.78,-184.64 17.67,-42.81 35.75,-85.23 54.22,-127.25l-1153.06 119.67c-7.23,5.65 -15.37,11.47 -24.03,17.15 -11.12,7.28 -22.53,14 -33.37,19.5 -11.7,5.97 -23.7,11.02 -35.18,14.6 -11.62,3.63 -22.64,5.73 -32.32,5.73 -17.67,0 -34.7,-4.03 -50.36,-11.27 -16.31,-7.55 -30.85,-18.51 -42.9,-31.97l-8.43 -9.45 0 -1.01c-8.27,-11.19 -15.09,-23.83 -20.14,-37.52l0 -0.12c-6.49,-17.49 -10.07,-36.52 -10.07,-56.27 0,-19.77 3.58,-38.79 10.07,-56.29 5.05,-13.69 11.89,-26.34 20.14,-37.52l0 -1.13 8.43 -9.45c12.05,-13.47 26.59,-24.42 42.9,-31.96 15.66,-7.27 32.69,-11.27 50.36,-11.27 23.15,0 41.28,9.48 56.98,23.89l0.06 -0.09c21.89,20.12 45.05,47.88 59.63,73.24zm2461.13 -113.39l-1151.26 119.5c-26.42,57.93 -51.87,115.96 -76.21,174.01 -26.91,64.13 -52.9,129.18 -77.86,195.04 -25.31,66.79 -49.89,135.27 -73.61,205.48 -23.79,70.43 -46.2,140.99 -67.17,211.65 -19.86,67.11 -39.2,136.98 -57.87,209.73 -18.57,72.31 -35.72,144.43 -51.33,216.31 -15.58,71.63 -30.27,145.91 -44.01,222.95 -13.78,77.37 -26.03,153.92 -36.57,229.59 -0.47,3.37 -1.14,8.35 -2.23,16.89 189.46,-64.42 332.51,-84.63 437.46,-73.79 141.35,14.58 216.94,84.54 245.2,180.2 18.65,63.18 15.02,136.57 -4.9,211.42 -20.85,78.31 -59.83,159.01 -109.64,231.28 -49.6,71.94 -110.39,136.13 -175.14,181.85 -60.91,43.02 -125.68,69.95 -188.66,72.14 -93.82,3.32 -181.29,-45.45 -243.98,-172.07 -47.34,-95.62 -80.3,-236.96 -90.25,-435.95 -4.79,1.57 -9.55,3.13 -14.26,4.66 -16,5.1 -31.61,9.72 -46.65,13.63l-0.12 0c-16.69,4.33 -32.77,7.79 -48.04,10.09 -15.58,2.37 -30.29,3.46 -43.89,3.06 -25.94,-0.78 -49.11,-5.86 -69.59,-14.5 -22.2,-9.4 -41.26,-22.97 -57.3,-39.86 -16.68,-17.53 -29.86,-38.48 -39.72,-61.89 -10.02,-23.72 -16.62,-50.06 -19.98,-78.05 -0.84,-6.83 -1.42,-13.09 -1.78,-18.85l0 0c-0.34,-5.11 -0.53,-11.24 -0.62,-18.16 -0.06,-5.94 0,-11.61 0.13,-17.18 0.15,-6.54 0.36,-11.9 0.58,-16.89 2.87,-59.49 7.48,-118.29 13.79,-176.31 6.33,-58.23 14.49,-116.73 24.36,-175.48 9.87,-58.63 21.38,-116.77 34.39,-174.38 13.18,-58.34 27.91,-116.13 44.09,-173.34 15.14,-53.62 32.12,-108.38 50.82,-164.27 18.74,-55.98 38.39,-110.54 58.9,-163.71 18.67,-48.43 38.76,-97.57 60.16,-147.35 12.34,-28.71 25.07,-57.39 38.1,-86.01 -124.38,29.72 -278.94,65.03 -429.17,90.6 -177.15,30.14 -348.74,46.68 -459.77,24.75 -35.85,-7.09 -69.76,-16.98 -101.62,-29.31 -33.26,-12.83 -63.62,-28.11 -91.1,-45.32 -29.06,-18.21 -55.38,-38.88 -78.92,-61.45 -24.52,-23.54 -45.87,-49.02 -64.03,-75.89 -8.09,-11.96 -15.71,-24.5 -22.77,-37.44 -6.87,-12.62 -13.31,-25.91 -19.26,-39.75 -5.82,-13.59 -11,-27.47 -15.48,-41.44 -4.56,-14.21 -8.42,-28.51 -11.54,-42.75 -3.14,-14.27 -5.61,-28.53 -7.34,-42.68 -1.78,-14.18 -2.88,-28.68 -3.35,-43.39 -0.43,-14.81 -0.23,-29.22 0.65,-43.17 0.87,-14.58 2.44,-28.91 4.64,-42.86 4.04,-25.65 10.42,-51.31 19.13,-76.64 8.58,-24.94 19.21,-48.91 31.8,-71.45 12.47,-22.37 27.03,-43.79 43.59,-63.91 16.12,-19.6 34.17,-37.99 54.11,-54.88 26.4,-22.33 52.83,-39.92 79.46,-53.87 26.75,-14.01 53.13,-24.15 79.55,-31.7 25.29,-7.21 51.47,-12.22 78.56,-16.12 289.68,-41.96 587.66,-67.8 878.19,-101.6l1765 -205.34c18.73,-2.16 37.02,-2.33 54.71,-0.69 18.19,1.68 36.16,5.37 53.76,10.84 17.79,5.53 34.89,12.89 51.04,21.85 16.48,9.13 32.01,19.94 46.38,32.19 14.38,12.29 27.77,26.23 39.85,41.6 11.93,15.1 22.56,31.61 31.63,49.28 9.01,17.53 16.46,35.98 22.04,55.06 11.65,39.59 15.45,82.01 11.26,123.39 -1.96,19.3 -5.67,38.33 -10.95,56.81 -5.4,18.88 -12.51,37.07 -21.09,54.27 -8.68,17.47 -18.88,33.93 -30.28,49.03 -11.45,15.11 -24.27,29.09 -38.28,41.71 -13.86,12.42 -28.85,23.52 -44.82,32.98 -15.47,9.16 -31.99,16.88 -49.37,22.82 -16.92,5.82 -34.49,9.98 -52.52,12.19l-1.03 0.12 -2.08 0.26 -1 0 -0.73 0.09 -1.1 0.13 -2.27 0.24 -0.54 0 -0.28 0zm-1643.58 1951.69c4.46,174.73 28.08,296.74 63.52,377.45 39.74,90.49 94.37,126.18 152.21,125.43 41.57,-0.51 86.13,-18.62 129.3,-48.17 48.6,-33.31 94.93,-81.01 133.31,-134.92 38.06,-53.46 67.89,-112.32 83.91,-168.44 14.04,-49.17 17.44,-95.87 6.19,-134l-0.09 -0.26c-15.03,-50.58 -59.56,-88.09 -145.02,-98 -92.81,-10.77 -229.83,10.72 -423.33,80.91z"/>
  </g>
  <path class="fil2" d="M18241.2 2622.23l0 -1315.19c0,-105.79 -28.41,-119.55 65.29,-119.55l706.76 0c181.59,0 286.03,84.56 313.04,254.05l4.28 59.32 0 311.25c0,29.11 -1.44,50.43 -4.28,64.31 -12.43,68.2 -40.89,123.98 -84.94,167.68 -41.55,40.87 -95.55,66.44 -162.35,77.1l-56.84 3.92 -51.19 -2.15 300.73 493.28 73.78 121.04c-230.31,0 -349.69,67.33 -460.3,-116.98l-276.57 -460.75c-17.45,-26.97 -25.96,-67.12 -25.96,-119.73 0,-31.25 4.96,-58.59 14.92,-82.42 10.3,-23.44 24.89,-44.79 44.43,-63.22 35.52,-33.42 81.71,-50.13 138.57,-50.13l134.27 0c31.29,0 53.67,-7.07 67.17,-20.94 13.47,-13.88 20.25,-36.97 20.25,-69.28l0 -141.45c0,-53.29 -26.66,-83.81 -80.31,-92.34l-22.02 0 -219.12 0c-141.81,0 -109.2,-10.16 -109.2,142.47l0 957.84c0,218.69 -330.41,170.01 -330.41,1.87z"/>
  <path class="fil2" d="M17420.83 2737.29c-80.65,0 -148.17,-12.44 -202.86,-37.32 -54.74,-25.22 -95.96,-62.16 -123.3,-110.83 -27.35,-49.04 -41.22,-107.66 -41.22,-175.54l0 -891.09c0,-22.71 2.13,-45.83 6.41,-68.56 28.4,-177.64 132.54,-266.46 313.01,-266.46l462.76 0c350.65,0 356.37,332.56 3.76,332.56l-323.32 0 -49.07 0 -7.09 0c-11.72,2.13 -18.81,4.25 -20.96,6.41 -17.39,6.03 -31.27,17.4 -41.57,34.08 -8.89,16.71 -13.52,36.59 -13.52,59.32l0 173.03 455.53 0c342.92,0 355.84,332.58 -3.8,332.58l-451.73 0 0 173.04c0,35.17 6.41,60.36 18.84,75.3 12.45,14.91 34.83,24.53 66.45,28.78l49.03 0 318.19 0c348.47,0 358.39,334.7 -0.64,334.7l-414.9 0z"/>
  <path class="fil2" d="M15950.28 1284.11c25.22,-33.04 58.25,-57.55 98.39,-73.17 40.15,-15.62 89.55,-23.45 147.81,-23.45l537.71 0c201.18,0 239.33,332.56 3.76,332.56l-425.64 0 -25.95 0c-115.22,14.97 -80.41,224.49 -44.76,253.67 11.75,9.98 30.91,16.33 57.22,19.17l22.03 0 238.04 0c405.69,0 373.9,679.45 238.76,837.09 -46.89,55.07 -115.48,89.2 -205.01,103.03l-55.45 4.28 -474.72 0c-310.79,0 -263.31,-334.7 -15.1,-334.7 62.06,0 423.08,37.42 476.69,-36.94 26.33,-37.86 40.55,-225.47 -57.2,-240.18l-38.36 0 -236.25 0c-374.42,0 -399.8,-632.36 -241.97,-841.36z"/>
  <path class="fil2" d="M14936.42 2063.27l-406.02 -747.77 -69.53 -128.01c239.8,0 342.21,-70.9 441.4,127.25l225.5 450.47 246.15 -449.24c108.98,-198.77 202.91,-128.48 447.03,-128.48l-69.11 126.75 -411.48 754.61c-43.62,80.02 -35.31,73.83 -35.31,165.21l0 392.52c0,205.07 -330.41,171.04 -330.41,-9.43l0 -377.45c0,-98.01 8.44,-90.47 -38.22,-176.43z"/>
  <path class="fil3" d="M13959.56 2737.29c-35.88,0 -69.28,-4.62 -100.19,-13.5 -30.91,-9.25 -60.03,-21.7 -87.78,-37.68 -47.95,-27.01 -83.12,-67.5 -105.86,-121.14 -23.12,-54.01 -34.46,-122.58 -34.46,-206.1l0 -1039.64c0,-240.67 330.41,-192.88 330.41,-3.81l0 948.61 0 63.95 0 4.28c0,46.89 27.73,70.33 83.53,70.33l59.3 0 316.7 0c330.39,0 339.51,334.7 0,334.7l-406.23 0 -24.13 0c-5.34,0 -11.04,0 -16.71,0 -6.78,0 -11.75,0 -14.58,0z"/>
  <path class="fil2" d="M12305.27 2624.43l0 -1308.39c0,-234.27 330.42,-192.27 330.42,0.92l0 475.93 464.75 0 0 -475.88c0,-193.55 330.41,-234.48 330.41,-1.89l0 1311.15c0,210.04 -330.41,160.2 -330.41,1.89l0 -502.69 -464.75 0 0 498.01c0,213.75 -330.42,165.77 -330.42,0.95z"/>
  <path class="fil2" d="M11330.02 2713.51c-66.11,-26.69 -115.48,-66.11 -147.81,-119.41 -32.69,-52.96 -49.05,-120.46 -49.05,-202.54l0 -852.34c0,-70.69 6.06,-127.53 18.11,-170.52 12.07,-43 31.63,-77.81 58.3,-104.82 26.62,-26.66 63.58,-46.21 110.83,-58.26 47.26,-12.08 104.82,-18.13 172.7,-18.13l414.26 0c367.38,0 370.26,332.56 1.89,332.56l-322.72 0 -29.12 0 -17.78 0c-41.57,4.25 -67.14,27.35 -76.05,69.63l0 38.74 0 639.88c0,33.75 2.5,60.39 7.84,79.23 5.3,18.48 14.92,32 28.74,40.5 11.75,6.38 32.03,11 61.5,14.56l28.06 0 317.55 0c367.09,0 371.87,334.7 0,334.7l-462.86 0c-20.25,0 -39.09,-1.78 -56.13,-5.35 -17.42,-3.19 -36.97,-9.57 -58.26,-18.43z"/>
  <path class="fil2" d="M10312.79 2737.29c-80.65,0 -148.17,-12.44 -202.88,-37.32 -54.72,-25.22 -95.94,-62.16 -123.28,-110.83 -27.37,-49.04 -41.22,-107.66 -41.22,-175.54l0 -891.09c0,-22.71 2.12,-45.83 6.4,-68.56 28.41,-177.64 132.52,-266.46 313.02,-266.46l495.02 0c294.38,0 312.97,332.56 4.74,332.56l-356.58 0 -49.04 0 -7.09 0c-11.75,2.13 -18.82,4.25 -20.99,6.41 -17.37,6.03 -31.25,17.4 -41.55,34.08 -8.89,16.71 -13.52,36.59 -13.52,59.32l0 173.03 485.81 0c315.12,0 286.54,332.58 3.8,332.58l-489.61 0 0 173.04c0,35.17 6.41,60.36 18.84,75.3 12.45,14.91 34.83,24.53 66.45,28.78l49.03 0 352.36 0c313.32,0 287.73,334.7 0.81,334.7l-450.52 0z"/>
  <path class="fil2" d="M9161.28 1520.05l-289.45 0c-148.9,0 -96.67,-332.56 -1.89,-332.56l887.91 0c143.41,0 177.82,332.56 11.31,332.56l-277.47 0 0 1139.88c0,148.99 -330.41,130.49 -330.41,-22.62l0 -1117.26z"/>
  <path class="fil4" d="M9052.55 3263.52l65.68 0 133.62 467.3 188.31 -467.3 11.3 0 183.63 467.3 134.38 -467.3 65.83 0 -186.65 648.98 -10.54 0 -192.83 -490.8 -197.79 490.8 -9.34 0 -185.6 -648.98zm1299.16 489.9l52.13 27.41c-17.18,33.3 -36.91,60.26 -59.36,80.75 -22.44,20.34 -47.61,36.01 -75.62,46.7 -28.17,10.7 -59.81,15.97 -95.21,15.97 -78.64,0 -139.95,-25.61 -184.24,-76.83 -44.29,-51.22 -66.43,-109.07 -66.43,-173.54 0,-60.72 18.83,-114.95 56.34,-162.4 47.45,-60.41 111.17,-90.69 190.86,-90.69 82.11,0 147.79,31.04 196.75,92.95 34.8,43.69 52.57,98.22 53.17,163.75l-433.85 0c1.2,55.59 19.13,101.08 53.63,136.49 34.65,35.55 77.43,53.32 128.19,53.32 24.56,0 48.51,-4.21 71.71,-12.65 23.2,-8.44 42.93,-19.59 59.2,-33.59 16.28,-14.01 33.9,-36.46 52.73,-67.64zm0.6 -129.25c-8.28,-33 -20.33,-59.21 -36.15,-78.95 -15.97,-19.73 -36.91,-35.55 -62.97,-47.6 -26.06,-12.05 -53.48,-18.08 -82.1,-18.08 -47.45,0 -88.13,15.07 -122.18,45.35 -25,22.15 -43.69,55.13 -56.49,99.28l359.89 0zm443.5 -360.65l127.9 0c51.53,0 91.15,6.03 118.71,18.23 27.72,12.2 49.57,31.03 65.54,56.34 16.11,25.16 24.1,53.33 24.1,84.06 0,28.92 -7.08,55.14 -21.09,78.79 -14.01,23.64 -34.65,42.78 -61.77,57.54 33.75,11.45 59.66,24.86 77.73,40.37 18.23,15.37 32.24,34.05 42.33,56.05 10.1,21.84 15.22,45.64 15.22,71.25 0,52.13 -18.98,96.26 -57.09,132.26 -38.12,36.01 -89.18,54.09 -153.36,54.09l-178.22 0 0 -648.98zm63.28 63.27l0 207.89 37.21 0c45.19,0 78.48,-4.22 99.73,-12.5 21.24,-8.44 38.11,-21.7 50.46,-39.78 12.51,-18.07 18.68,-38.26 18.68,-60.25 0,-29.68 -10.39,-53.03 -31.18,-70.05 -20.94,-16.87 -54.08,-25.31 -99.58,-25.31l-75.32 0zm0 272.97l0 249.47 80.6 0c47.45,0 82.25,-4.67 104.39,-13.86 22.15,-9.34 39.92,-23.96 53.33,-43.69 13.41,-19.74 20.18,-41.13 20.18,-64.02 0,-28.93 -9.49,-54.24 -28.32,-75.78 -18.83,-21.39 -44.74,-36.15 -77.73,-44.14 -22.14,-5.27 -60.71,-7.98 -115.69,-7.98l-36.76 0zm849.18 153.66l52.13 27.41c-17.17,33.3 -36.91,60.26 -59.35,80.75 -22.45,20.34 -47.61,36.01 -75.63,46.7 -28.17,10.7 -59.8,15.97 -95.21,15.97 -78.63,0 -139.95,-25.61 -184.24,-76.83 -44.29,-51.22 -66.43,-109.07 -66.43,-173.54 0,-60.72 18.83,-114.95 56.34,-162.4 47.46,-60.41 111.18,-90.69 190.87,-90.69 82.1,0 147.78,31.04 196.74,92.95 34.8,43.69 52.58,98.22 53.18,163.75l-433.86 0c1.2,55.59 19.13,101.08 53.63,136.49 34.65,35.55 77.43,53.32 128.2,53.32 24.55,0 48.51,-4.21 71.7,-12.65 23.2,-8.44 42.94,-19.59 59.21,-33.59 16.27,-14.01 33.89,-36.46 52.72,-67.64zm0.6 -129.25c-8.28,-33 -20.33,-59.21 -36.15,-78.95 -15.96,-19.73 -36.91,-35.55 -62.97,-47.6 -26.06,-12.05 -53.47,-18.08 -82.1,-18.08 -47.45,0 -88.13,15.07 -122.17,45.35 -25.01,22.15 -43.69,55.13 -56.49,99.28l359.88 0zm172.5 -376.92l61.46 0 0 665.25 -61.46 0 0 -665.25zm211.51 -11.75c14.01,0 25.91,4.97 35.85,15.06 9.94,9.94 14.92,22.15 14.92,36.16 0,13.86 -4.98,25.91 -14.92,35.85 -9.94,10.09 -21.84,15.06 -35.85,15.06 -13.86,0 -25.61,-4.97 -35.55,-15.06 -9.95,-9.94 -14.92,-21.99 -14.92,-35.85 0,-14.01 4.97,-26.22 14.92,-36.16 9.94,-10.09 21.69,-15.06 35.55,-15.06zm-30.58 197.04l61.46 0 0 479.96 -61.46 0 0 -479.96zm595.2 320.88l52.12 27.41c-17.17,33.3 -36.91,60.26 -59.35,80.75 -22.45,20.34 -47.61,36.01 -75.63,46.7 -28.17,10.7 -59.8,15.97 -95.21,15.97 -78.63,0 -139.94,-25.61 -184.23,-76.83 -44.3,-51.22 -66.44,-109.07 -66.44,-173.54 0,-60.72 18.83,-114.95 56.34,-162.4 47.46,-60.41 111.18,-90.69 190.87,-90.69 82.1,0 147.78,31.04 196.74,92.95 34.8,43.69 52.58,98.22 53.18,163.75l-433.85 0c1.2,55.59 19.12,101.08 53.63,136.49 34.64,35.55 77.42,53.32 128.19,53.32 24.56,0 48.51,-4.21 71.71,-12.65 23.2,-8.44 42.93,-19.59 59.2,-33.59 16.27,-14.01 33.9,-36.46 52.73,-67.64zm0.6 -129.25c-8.29,-33 -20.34,-59.21 -36.15,-78.95 -15.97,-19.73 -36.91,-35.55 -62.97,-47.6 -26.06,-12.05 -53.48,-18.08 -82.11,-18.08 -47.45,0 -88.12,15.07 -122.17,45.35 -25,22.15 -43.69,55.13 -56.49,99.28l359.89 0zm136.34 -191.63l64.62 0 161.65 350.41 160.44 -350.41 66.13 0 -219.64 479.96 -11.75 0 -221.45 -479.96zm951.32 320.88l52.13 27.41c-17.18,33.3 -36.91,60.26 -59.36,80.75 -22.44,20.34 -47.61,36.01 -75.62,46.7 -28.18,10.7 -59.81,15.97 -95.21,15.97 -78.64,0 -139.95,-25.61 -184.24,-76.83 -44.29,-51.22 -66.43,-109.07 -66.43,-173.54 0,-60.72 18.83,-114.95 56.34,-162.4 47.45,-60.41 111.17,-90.69 190.86,-90.69 82.11,0 147.79,31.04 196.75,92.95 34.8,43.69 52.57,98.22 53.17,163.75l-433.85 0c1.2,55.59 19.13,101.08 53.63,136.49 34.65,35.55 77.43,53.32 128.19,53.32 24.56,0 48.51,-4.21 71.71,-12.65 23.2,-8.44 42.93,-19.59 59.2,-33.59 16.28,-14.01 33.9,-36.46 52.73,-67.64zm0.6 -129.25c-8.28,-33 -20.33,-59.21 -36.15,-78.95 -15.97,-19.73 -36.91,-35.55 -62.97,-47.6 -26.06,-12.05 -53.48,-18.08 -82.1,-18.08 -47.45,0 -88.13,15.07 -122.18,45.35 -25,22.15 -43.69,55.13 -56.49,99.28l359.89 0zm432.66 -360.65l65.08 0 0 648.98 -65.08 0 0 -648.98zm203.37 169.02l61.47 0 0 86.02c24.85,-32.84 52.27,-57.39 82.25,-73.51 30.13,-16.12 62.82,-24.26 98.22,-24.26 36,0 67.94,9.04 95.81,27.27 27.87,18.22 48.51,42.78 61.76,73.66 13.26,30.74 19.89,78.79 19.89,144.02l0 246.76 -61.47 0 0 -228.68c0,-55.14 -2.4,-92.05 -7.07,-110.57 -7.54,-31.64 -21.39,-55.44 -41.73,-71.56 -20.34,-15.97 -46.85,-23.96 -79.54,-23.96 -37.51,0 -71.11,12.36 -100.63,37.07 -29.68,24.55 -49.27,55.13 -58.61,91.58 -5.87,23.81 -8.88,67.19 -8.88,130.32l0 175.8 -61.47 0 0 -479.96zm760.76 -169.02l74.27 0 167.82 271.01 164.95 -271.01 73.82 0 -206.08 338.65 0 310.33 -65.08 0 0 -310.33 -209.7 -338.65zm803.24 157.27c73.97,0 135.43,26.66 184.09,80.15 44.29,48.65 66.44,106.35 66.44,172.94 0,66.89 -23.36,125.33 -70.21,175.35 -46.69,50.01 -106.95,75.02 -180.32,75.02 -73.82,0 -134.22,-25.01 -180.92,-75.02 -46.85,-50.02 -70.2,-108.46 -70.2,-175.35 0,-66.29 22.14,-123.84 66.43,-172.49 48.66,-53.78 110.27,-80.6 184.69,-80.6zm-0.3 60.56c-51.37,0 -95.36,18.83 -132.27,56.64 -36.9,37.82 -55.28,83.61 -55.28,137.24 0,34.5 8.44,66.74 25.16,96.71 16.87,29.84 39.62,52.88 68.24,69.15 28.47,16.27 59.96,24.41 94.15,24.41 34.2,0 65.68,-8.14 94.15,-24.41 28.63,-16.27 51.38,-39.31 68.25,-69.15 16.72,-29.97 25.16,-62.21 25.16,-96.71 0,-53.63 -18.53,-99.42 -55.59,-137.24 -36.91,-37.81 -80.9,-56.64 -131.97,-56.64zm356.43 -48.81l61.46 0 0 224.01c0,54.69 3.02,92.2 8.89,112.83 8.74,29.38 25.76,52.58 50.62,69.6 24.86,17.03 54.68,25.61 89.18,25.61 34.5,0 63.72,-8.28 87.83,-24.86 23.95,-16.72 40.67,-38.41 49.71,-65.52 6.17,-18.53 9.34,-57.7 9.34,-117.66l0 -224.01 63.27 0 0 235.31c0,66.14 -7.68,115.85 -23.2,149.29 -15.36,33.6 -38.71,59.81 -69.75,78.64 -31.03,18.98 -69.9,28.47 -116.75,28.47 -46.85,0 -85.87,-9.49 -117.2,-28.47 -31.33,-18.83 -54.83,-45.35 -70.2,-79.24 -15.52,-33.9 -23.2,-84.97 -23.2,-153.06l0 -230.94zm534.04 0l63.27 0 0 70.21c18.83,-27.73 38.72,-48.21 59.65,-61.77 20.94,-13.41 42.79,-20.19 65.39,-20.19 17.17,0 35.4,5.43 54.83,16.27l-32.24 51.82c-12.96,-5.57 -23.8,-8.43 -32.69,-8.43 -20.64,0 -40.52,8.43 -59.65,25.3 -19.14,16.88 -33.75,43.24 -43.84,78.8 -7.68,27.26 -11.45,82.55 -11.45,165.7l0 162.25 -63.27 0 0 -479.96zm546.54 -169.02l65.08 0 0 648.98 -65.08 0 0 -648.98zm682.43 -16.27l0 665.25 -61.47 0 0 -82.55c-25.91,31.48 -54.83,55.13 -87.07,70.8 -32.09,15.67 -67.34,23.5 -105.45,23.5 -67.79,0 -125.79,-24.55 -173.84,-73.67 -48.06,-49.26 -72.02,-108.91 -72.02,-179.41 0,-68.85 24.26,-127.9 72.77,-176.86 48.35,-48.96 106.65,-73.52 174.9,-73.52 39.31,0 74.86,8.44 106.8,25.16 31.79,16.72 59.81,41.88 83.91,75.47l0 -274.17 61.47 0zm-247.36 233.2c-34.35,0 -66.14,8.43 -95.06,25.3 -29.07,16.73 -52.13,40.38 -69.3,70.81 -17.17,30.43 -25.76,62.67 -25.76,96.71 0,33.6 8.59,65.83 25.91,96.57 17.33,30.73 40.52,54.68 69.75,71.7 29.23,17.18 60.56,25.76 94,25.76 33.59,0 65.68,-8.43 95.81,-25.45 30.28,-17.03 53.48,-39.92 69.75,-69 16.27,-28.92 24.41,-61.61 24.41,-97.92 0,-55.29 -18.23,-101.53 -54.84,-138.74 -36.46,-37.21 -81.35,-55.74 -134.67,-55.74zm792.69 272.97l52.13 27.41c-17.18,33.3 -36.91,60.26 -59.36,80.75 -22.44,20.34 -47.6,36.01 -75.62,46.7 -28.17,10.7 -59.81,15.97 -95.21,15.97 -78.64,0 -139.95,-25.61 -184.24,-76.83 -44.29,-51.22 -66.43,-109.07 -66.43,-173.54 0,-60.72 18.83,-114.95 56.34,-162.4 47.45,-60.41 111.17,-90.69 190.86,-90.69 82.11,0 147.79,31.04 196.75,92.95 34.8,43.69 52.57,98.22 53.17,163.75l-433.85 0c1.2,55.59 19.13,101.08 53.63,136.49 34.65,35.55 77.43,53.32 128.19,53.32 24.56,0 48.52,-4.21 71.71,-12.65 23.2,-8.44 42.93,-19.59 59.21,-33.59 16.27,-14.01 33.89,-36.46 52.72,-67.64zm0.6 -129.25c-8.28,-33 -20.33,-59.21 -36.15,-78.95 -15.97,-19.73 -36.91,-35.55 -62.97,-47.6 -26.06,-12.05 -53.48,-18.08 -82.1,-18.08 -47.45,0 -88.13,15.07 -122.17,45.35 -25.01,22.15 -43.69,55.13 -56.5,99.28l359.89 0zm659.69 -191.63l0 479.96 -61.47 0 0 -82.55c-25.91,31.48 -54.84,55.13 -87.07,70.8 -32.09,15.67 -67.34,23.5 -105.45,23.5 -67.79,0 -125.79,-24.55 -173.85,-73.67 -48.05,-49.26 -72.01,-108.91 -72.01,-179.41 0,-68.85 24.26,-127.9 72.77,-176.86 48.35,-48.96 106.65,-73.52 174.9,-73.52 39.31,0 74.86,8.29 106.8,24.86 31.79,16.57 59.81,41.58 83.91,75.17l0 -88.28 61.47 0zm-247.36 47.91c-34.35,0 -66.14,8.43 -95.06,25.3 -29.07,16.73 -52.13,40.38 -69.3,70.81 -17.17,30.43 -25.76,62.67 -25.76,96.71 0,33.6 8.59,65.83 25.91,96.57 17.33,30.73 40.52,54.68 69.75,71.7 29.23,17.18 60.56,25.76 94,25.76 33.59,0 65.68,-8.43 95.81,-25.45 30.28,-17.03 53.48,-39.92 69.75,-69 16.27,-28.92 24.41,-61.61 24.41,-97.92 0,-55.29 -18.23,-101.53 -54.84,-138.74 -36.46,-37.21 -81.35,-55.74 -134.67,-55.74z"/>
 </g>
</svg>
